<svg width="73" height="67" viewBox="0 0 73 67" fill="none" xmlns="http://www.w3.org/2000/svg">
<path d="M63.1629 0H9.83742C4.40476 0 0.000518799 4.04208 0.000518799 9.02838V57.9713C0.000518799 62.9576 4.40458 66.9997 9.83742 66.9997H36.1373L36.1821 43.0576H29.405C28.5242 43.0576 27.8094 42.404 27.806 41.5956L27.7735 33.8781C27.7701 33.0653 28.4871 32.4048 29.3726 32.4048H36.1375V24.9477C36.1375 16.2939 41.896 11.5818 50.3072 11.5818H57.2092C58.0922 11.5818 58.8083 12.2388 58.8083 13.0495V19.5569C58.8083 20.3673 58.0928 21.0242 57.2101 21.0247L52.9744 21.0265C48.4002 21.0265 47.5144 23.0214 47.5144 25.9492V32.405H57.5656C58.5233 32.405 59.2664 33.1725 59.1535 34.0455L58.1569 41.763C58.0615 42.5015 57.3792 43.0579 56.569 43.0579H47.5592L47.5144 67H63.1633C68.5959 67 73 62.9579 73 57.9718V9.02838C72.9998 4.04208 68.5957 0 63.1629 0Z" fill="black"/>
</svg>
