<svg width="212" height="47" viewBox="0 0 212 47" fill="none" xmlns="http://www.w3.org/2000/svg">
<path d="M24.1818 12.375C23.9432 11.5455 23.608 10.8125 23.1762 10.1761C22.7443 9.52842 22.2159 8.98297 21.5909 8.53978C20.9773 8.08524 20.2727 7.73865 19.4773 7.50001C18.6932 7.26138 17.8239 7.14206 16.8693 7.14206C15.0852 7.14206 13.5171 7.58524 12.1648 8.4716C10.8239 9.35796 9.77843 10.6477 9.02843 12.3409C8.27843 14.0227 7.90343 16.0796 7.90343 18.5114C7.90343 20.9432 8.27274 23.0114 9.01138 24.7159C9.75002 26.4205 10.7955 27.7216 12.1477 28.6193C13.5 29.5057 15.0966 29.9489 16.9375 29.9489C18.608 29.9489 20.0341 29.6534 21.2159 29.0625C22.4091 28.4602 23.3182 27.6136 23.9432 26.5227C24.5796 25.4318 24.8977 24.1421 24.8977 22.6534L26.3977 22.875H17.3977V17.3182H32.0057V21.7159C32.0057 24.7841 31.358 27.4205 30.0625 29.625C28.7671 31.8182 26.983 33.5114 24.7102 34.7046C22.4375 35.8864 19.8352 36.4773 16.9034 36.4773C13.6307 36.4773 10.7557 35.7557 8.27843 34.3125C5.80115 32.858 3.86934 30.7955 2.48297 28.125C1.10797 25.4432 0.420471 22.2614 0.420471 18.5796C0.420471 15.75 0.829562 13.2273 1.64774 11.0114C2.47729 8.7841 3.63638 6.89774 5.12502 5.35229C6.61365 3.80683 8.34661 2.63069 10.3239 1.82387C12.3012 1.01706 14.4432 0.613647 16.75 0.613647C18.7273 0.613647 20.5682 0.90342 22.2727 1.48297C23.9773 2.05115 25.4887 2.85797 26.8068 3.90342C28.1364 4.94887 29.2216 6.19319 30.0625 7.63637C30.9034 9.06819 31.4432 10.6477 31.6818 12.375H24.1818Z" fill="#442B0D"/>
<path d="M44.6747 1.09092V36H37.4134V1.09092H44.6747Z" fill="#442B0D"/>
<path d="M67.2813 24.8523V9.81819H74.5426V36H67.571V31.2443H67.2983C66.7074 32.7784 65.7244 34.0114 64.3494 34.9432C62.9858 35.875 61.321 36.3409 59.3551 36.3409C57.6051 36.3409 56.0654 35.9432 54.7358 35.1477C53.4063 34.3523 52.3665 33.2216 51.6165 31.7557C50.8779 30.2898 50.5029 28.5341 50.4915 26.4886V9.81819H57.7529V25.1932C57.7642 26.7386 58.179 27.9602 58.9972 28.858C59.8154 29.7557 60.9119 30.2046 62.2869 30.2046C63.1619 30.2046 63.9801 30.0057 64.7415 29.608C65.5029 29.1989 66.1165 28.5966 66.5824 27.8011C67.0597 27.0057 67.2926 26.0227 67.2813 24.8523Z" fill="#442B0D"/>
<path d="M80.3509 36V9.81819H87.3906V14.3864H87.6634C88.1406 12.7614 88.9418 11.5341 90.0668 10.7046C91.1918 9.86365 92.4872 9.44319 93.9531 9.44319C94.3168 9.44319 94.7088 9.46592 95.1293 9.51137C95.5497 9.55683 95.919 9.61933 96.2372 9.69887V16.1421C95.8963 16.0398 95.4247 15.9489 94.8225 15.8693C94.2202 15.7898 93.6691 15.75 93.1691 15.75C92.1009 15.75 91.1463 15.983 90.3054 16.4489C89.4759 16.9034 88.8168 17.5398 88.3281 18.358C87.8509 19.1761 87.6122 20.1193 87.6122 21.1875V36H80.3509Z" fill="#442B0D"/>
<path d="M110.568 46.3636C108.216 46.3636 106.199 46.0398 104.517 45.3921C102.847 44.7557 101.517 43.8864 100.528 42.7841C99.5398 41.6818 98.8977 40.4432 98.6023 39.0682L105.318 38.1648C105.523 38.6875 105.847 39.1761 106.29 39.6307C106.733 40.0852 107.318 40.4489 108.045 40.7216C108.784 41.0057 109.682 41.1477 110.739 41.1477C112.318 41.1477 113.619 40.7614 114.642 39.9886C115.676 39.2273 116.193 37.9489 116.193 36.1534V31.3636H115.886C115.568 32.0909 115.091 32.7784 114.455 33.4261C113.818 34.0739 113 34.6023 112 35.0114C111 35.4205 109.807 35.625 108.42 35.625C106.455 35.625 104.665 35.1705 103.051 34.2614C101.449 33.3409 100.17 31.9375 99.2159 30.0511C98.2727 28.1534 97.8012 25.7557 97.8012 22.858C97.8012 19.8921 98.2841 17.4148 99.25 15.4261C100.216 13.4375 101.5 11.9489 103.102 10.9602C104.716 9.9716 106.483 9.47728 108.403 9.47728C109.869 9.47728 111.097 9.72728 112.085 10.2273C113.074 10.7159 113.869 11.3296 114.472 12.0682C115.085 12.7955 115.557 13.5114 115.886 14.2159H116.159V9.81819H123.369V36.2557C123.369 38.483 122.824 40.3466 121.733 41.8466C120.642 43.3466 119.131 44.4716 117.199 45.2216C115.278 45.983 113.068 46.3636 110.568 46.3636ZM110.722 30.1705C111.892 30.1705 112.881 29.8807 113.688 29.3011C114.506 28.7102 115.131 27.8693 115.563 26.7784C116.006 25.6761 116.227 24.358 116.227 22.8239C116.227 21.2898 116.011 19.9602 115.58 18.8352C115.148 17.6989 114.523 16.8182 113.705 16.1932C112.886 15.5682 111.892 15.2557 110.722 15.2557C109.528 15.2557 108.523 15.5796 107.705 16.2273C106.886 16.8636 106.267 17.75 105.847 18.8864C105.426 20.0227 105.216 21.3352 105.216 22.8239C105.216 24.3352 105.426 25.6421 105.847 26.7443C106.278 27.8352 106.898 28.6818 107.705 29.2841C108.523 29.875 109.528 30.1705 110.722 30.1705Z" fill="#442B0D"/>
<path d="M141.08 36.5114C138.386 36.5114 136.068 35.9659 134.125 34.875C132.193 33.7727 130.705 32.2159 129.659 30.2046C128.614 28.1818 128.091 25.7898 128.091 23.0284C128.091 20.3352 128.614 17.9716 129.659 15.9375C130.705 13.9034 132.176 12.3182 134.074 11.1818C135.983 10.0455 138.222 9.47728 140.79 9.47728C142.517 9.47728 144.125 9.75569 145.614 10.3125C147.114 10.858 148.42 11.6818 149.534 12.7841C150.659 13.8864 151.534 15.2727 152.159 16.9432C152.784 18.6023 153.097 20.5455 153.097 22.7727V24.7671H130.989V20.2671H146.261C146.261 19.2216 146.034 18.2955 145.58 17.4886C145.125 16.6818 144.494 16.0511 143.688 15.5966C142.892 15.1307 141.966 14.8977 140.909 14.8977C139.807 14.8977 138.83 15.1534 137.977 15.6648C137.136 16.1648 136.477 16.8409 136 17.6932C135.523 18.5341 135.278 19.4716 135.267 20.5057V24.7841C135.267 26.0796 135.506 27.1989 135.983 28.1421C136.472 29.0852 137.159 29.8125 138.045 30.3239C138.932 30.8352 139.983 31.0909 141.199 31.0909C142.006 31.0909 142.744 30.9773 143.415 30.75C144.085 30.5227 144.659 30.1818 145.136 29.7273C145.614 29.2727 145.977 28.7159 146.227 28.0568L152.943 28.5C152.602 30.1136 151.903 31.5227 150.847 32.7273C149.801 33.9205 148.449 34.8523 146.79 35.5227C145.142 36.1818 143.239 36.5114 141.08 36.5114Z" fill="#442B0D"/>
<path d="M169.767 36.5114C167.074 36.5114 164.756 35.9659 162.813 34.875C160.881 33.7727 159.392 32.2159 158.347 30.2046C157.301 28.1818 156.778 25.7898 156.778 23.0284C156.778 20.3352 157.301 17.9716 158.347 15.9375C159.392 13.9034 160.864 12.3182 162.761 11.1818C164.67 10.0455 166.909 9.47728 169.477 9.47728C171.205 9.47728 172.813 9.75569 174.301 10.3125C175.801 10.858 177.108 11.6818 178.222 12.7841C179.347 13.8864 180.222 15.2727 180.847 16.9432C181.472 18.6023 181.784 20.5455 181.784 22.7727V24.7671H159.676V20.2671H174.949C174.949 19.2216 174.722 18.2955 174.267 17.4886C173.813 16.6818 173.182 16.0511 172.375 15.5966C171.58 15.1307 170.653 14.8977 169.597 14.8977C168.494 14.8977 167.517 15.1534 166.665 15.6648C165.824 16.1648 165.165 16.8409 164.688 17.6932C164.21 18.5341 163.966 19.4716 163.955 20.5057V24.7841C163.955 26.0796 164.193 27.1989 164.67 28.1421C165.159 29.0852 165.847 29.8125 166.733 30.3239C167.619 30.8352 168.67 31.0909 169.886 31.0909C170.693 31.0909 171.432 30.9773 172.102 30.75C172.773 30.5227 173.347 30.1818 173.824 29.7273C174.301 29.2727 174.665 28.7159 174.915 28.0568L181.631 28.5C181.29 30.1136 180.591 31.5227 179.534 32.7273C178.489 33.9205 177.136 34.8523 175.477 35.5227C173.83 36.1818 171.926 36.5114 169.767 36.5114Z" fill="#442B0D"/>
<path d="M193.102 28.4659L193.119 19.7557H194.176L202.563 9.81819H210.898L199.631 22.9773H197.909L193.102 28.4659ZM186.523 36V1.09092H193.784V36H186.523ZM202.886 36L195.182 24.5966L200.023 19.4659L211.392 36H202.886Z" fill="#442B0D"/>
</svg>
