<svg width="86" height="74" viewBox="0 0 86 74" fill="none" xmlns="http://www.w3.org/2000/svg">
<g clip-path="url(#clip0_2_2)">
<path d="M83.465 14.5224C83.0409 14.6289 82.617 14.7282 82.1931 14.8206C79.6014 15.3837 79.3632 14.6406 81.2395 13.0014C82.0798 12.2668 82.8223 11.4678 83.467 10.6049C84.9123 8.66984 83.6587 7.82597 81.1998 8.72986C80.3227 9.0523 79.4311 9.34467 78.5271 9.60531C75.9935 10.3374 72.3982 9.23306 70.1407 8.001C67.2906 6.44583 64.0515 5.66865 60.4224 5.66865C55.339 5.66865 51.0061 7.2113 47.4213 10.2942C43.8375 13.3786 42.0447 17.108 42.0447 21.481C42.0447 22.0791 42.0844 22.6863 42.1629 23.3019C42.2916 24.3039 40.3304 25.0303 37.6837 24.7087C31.9585 24.0132 26.519 22.5205 21.3641 20.2323C16.2517 17.9632 11.7396 15.1078 7.82861 11.6659C5.95908 10.0209 3.43057 10.1625 2.73252 12.3832C2.31429 13.7143 2.10628 15.0986 2.10628 16.5365C2.10628 19.2461 2.84577 21.7593 4.32508 24.0758C5.06077 25.2287 5.92238 26.2723 6.9118 27.2062C8.57601 28.7781 8.32134 29.6902 6.00479 29.1313C3.68919 28.5724 1.99224 27.7427 1.99224 27.7969C1.99224 27.8511 1.99224 27.8952 1.99224 27.8952C1.99224 31.7127 3.38533 35.0671 6.17325 37.9551C7.89061 39.7343 9.88574 41.1087 12.1578 42.0767C14.5538 43.0979 15.6699 43.6675 14.3301 43.8167C13.5218 43.9067 12.7086 43.9516 11.8907 43.9516C11.337 43.9516 10.7562 43.93 10.1502 43.8859C9.1918 43.8159 9.01955 45.5343 10.4726 47.4652C11.6275 48.9996 13.1057 50.3498 14.9064 51.5161C16.7379 52.7031 18.7119 53.5551 20.825 54.0741C23.3962 54.7047 23.9122 55.8535 21.6197 57.0362C15.9469 59.9652 9.66903 61.4294 2.78709 61.4294C2.01169 61.4294 1.27204 61.4145 0.56545 61.3853C-0.661079 61.3346 0.161774 62.264 2.52957 63.3311C9.92845 66.6657 17.9411 68.3315 26.5685 68.3315C33.0914 68.3315 39.2172 67.4428 44.9453 65.6643C50.6712 63.8859 55.5648 61.5026 59.623 58.5164C63.6811 55.5302 67.1806 52.0958 70.1206 48.2115C73.0597 44.3274 75.2494 40.2723 76.6919 36.0467C78.1323 31.8201 78.8536 27.5852 78.8536 23.3421C78.8536 22.9597 78.8498 22.6165 78.843 22.3142C78.8294 21.7461 80.5758 20.2083 82.5254 18.6349C83.4053 17.9244 84.2446 17.1788 85.0463 16.3967C86.8146 14.6698 86.0314 13.8784 83.465 14.5224Z" fill="black"/>
</g>
<defs>
<clipPath id="clip0_2_2">
<rect width="86" height="74" fill="white"/>
</clipPath>
</defs>
</svg>
