<svg width="82" height="82" viewBox="0 0 82 82" fill="none" xmlns="http://www.w3.org/2000/svg">
<path d="M78.8038 17.0996C75.8439 13.5811 70.379 12.1458 59.9423 12.1458H22.0569C11.3813 12.1458 5.82385 13.6736 2.87503 17.4197C0 21.0722 0 26.4537 0 33.902V48.0983C0 62.5279 3.4112 69.8542 22.0569 69.8542H59.9425C68.9932 69.8542 74.0084 68.5877 77.253 65.4826C80.5803 62.2983 82 57.0993 82 48.0983V33.902C82 26.0472 81.7775 20.6338 78.8038 17.0996ZM52.6443 42.9601L35.4407 51.9512C35.0561 52.1523 34.6355 52.252 34.2154 52.252C33.7398 52.252 33.2653 52.124 32.845 51.8695C32.0535 51.3899 31.5703 50.5321 31.5703 49.6068V31.6822C31.5703 30.7585 32.0522 29.9014 32.8421 29.4216C33.6322 28.9418 34.6148 28.909 35.4346 29.3348L52.6382 38.2681C53.5135 38.7225 54.0631 39.6261 54.0644 40.612C54.0655 41.5986 53.5182 42.5035 52.6443 42.9601Z" fill="black"/>
</svg>
